Coordinates
version=1
nRows=16
nColumns=40
inDegrees=yes

Units are S.I. units (second, meters, Newtons, ...)
If the header above contains a line with 'inDegrees', this indicates whether rotational values are in degrees (yes) or radians (no).

endheader
time	pelvis_tilt	pelvis_list	pelvis_rotation	pelvis_tx	pelvis_ty	pelvis_tz	hip_flexion_r	hip_adduction_r	hip_rotation_r	knee_angle_r	knee_angle_r_beta	ankle_angle_r	subtalar_angle_r	mtp_angle_r	hip_flexion_l	hip_adduction_l	hip_rotation_l	knee_angle_l	knee_angle_l_beta	ankle_angle_l	subtalar_angle_l	mtp_angle_l	lumbar_extension	lumbar_bending	lumbar_rotation	arm_flex_r	arm_add_r	arm_rot_r	elbow_flex_r	pro_sup_r	wrist_flex_r	wrist_dev_r	arm_flex_l	arm_add_l	arm_rot_l	elbow_flex_l	pro_sup_l	wrist_flex_l	wrist_dev_l
      2.75000000	    -31.08741904	      0.74950591	      5.41511904	     -0.42206822	      0.58945739	     -0.90152658	     97.53081855	    -13.87589547	      7.55745999	    110.75735184	      1.93308046	     43.98921760	      0.00000000	      0.00000000	     97.68947847	    -13.98456457	      2.03589639	    109.52826455	      1.91162884	     42.38542552	      0.00000000	      0.00000000	    -25.52722331	     -1.11436945	     -7.29074781	     -7.03199521	    -43.81916614	     53.73399705	     81.74455721	     87.88963172	      0.00000000	      0.00000000	    -26.75903727	    -40.05101694	     32.99488424	     85.13109274	     87.86184615	      0.00000000	      0.00000000
      2.75500000	    -31.15344113	      0.90457807	      5.39542980	     -0.42176607	      0.58945501	     -0.90155280	     97.59882346	    -13.83413046	      7.75155138	    110.76791750	      1.93326487	     44.14661872	      0.00000000	      0.00000000	     97.64058237	    -14.00750244	      1.85851604	    109.51741500	      1.91143948	     42.46137363	      0.00000000	      0.00000000	    -25.51373776	     -1.28507832	     -7.12633676	     -7.66777612	    -43.73596875	     52.84692908	     81.82780511	     87.87566148	      0.00000000	      0.00000000	    -26.52535854	    -40.18112357	     33.23943295	     85.17766249	     87.81611754	      0.00000000	      0.00000000
      2.76000000	    -31.40649338	      0.98253392	      5.55707229	     -0.42167681	      0.58919286	     -0.90190383	     97.90166923	    -13.99859299	      7.92188029	    110.81275675	      1.93404746	     43.93034561	      0.00000000	      0.00000000	     97.82617601	    -13.82598360	      1.70559306	    109.47135101	      1.91063551	     42.47029801	      0.00000000	      0.00000000	    -25.23964368	     -1.30571225	     -6.50229785	     -9.25429685	    -43.51382234	     51.02308199	     81.87618222	     87.91472123	      0.00000000	      0.00000000	    -25.14617284	    -40.72564279	     34.98234649	     85.03817339	     87.80792271	      0.00000000	      0.00000000
      2.76500000	    -31.36445063	      1.01537181	      5.59641830	     -0.42130863	      0.58941643	     -0.90196655	     97.80728128	    -14.03408539	      7.96693519	    110.79911749	      1.93380941	     43.97901016	      0.00000000	      0.00000000	     97.72998930	    -13.78330321	      1.65994547	    109.46133230	      1.91046065	     42.44533961	      0.00000000	      0.00000000	    -25.26445967	     -1.34529511	     -7.85707953	     -6.34122440	    -43.92052872	     54.67879079	     81.65898430	     87.86617356	      0.00000000	      0.00000000	    -27.24769532	    -39.89824539	     32.51300976	     85.19553227	     87.86684939	      0.00000000	      0.00000000
      2.77000000	    -31.30636109	      0.86338258	      5.61310705	     -0.42090774	      0.58972736	     -0.90191214	     97.64715157	    -14.06242412	      7.76107440	    110.77259501	      1.93334650	     43.94137415	      0.00000000	      0.00000000	     97.68202684	    -13.79924456	      1.80334766	    109.45419079	      1.91033601	     42.46224689	      0.00000000	      0.00000000	    -25.34375911	     -1.18757311	     -7.61382015	     -6.69351583	    -43.92002712	     54.19016706	     81.62751323	     87.87993703	      0.00000000	      0.00000000	    -26.96375430	    -39.93933696	     32.76882177	     85.16682235	     87.87136574	      0.00000000	      0.00000000
      2.77500000	    -31.24494510	      0.79540638	      5.55321515	     -0.42050680	      0.59008807	     -0.90165543	     97.48917599	    -13.98678261	      7.62628113	    110.72240649	      1.93247055	     44.06802673	      0.00000000	      0.00000000	     97.62314113	    -13.89325142	      1.89859613	    109.45538938	      1.91035693	     42.47371582	      0.00000000	      0.00000000	    -25.41035653	     -1.14563701	     -6.89613852	     -7.84730302	    -43.77365267	     52.85119269	     81.76000637	     87.87774241	      0.00000000	      0.00000000	    -25.75700710	    -40.52398143	     34.39693734	     85.05699734	     87.85969400	      0.00000000	      0.00000000
      2.78000000	    -31.30407286	      0.57067664	      5.54094340	     -0.42033775	      0.59027816	     -0.90134697	     97.44722650	    -13.91244759	      7.39183381	    110.69263991	      1.93195102	     44.11206747	      0.00000000	      0.00000000	     97.74470938	    -13.96187254	      2.10359096	    109.40787135	      1.90952758	     42.41938317	      0.00000000	      0.00000000	    -25.35714526	     -0.95888890	     -6.78060535	     -7.88281548	    -43.77102463	     52.75802581	     81.80089379	     87.88616966	      0.00000000	      0.00000000	    -25.78483561	    -40.48544134	     34.30821111	     85.06765045	     87.85246980	      0.00000000	      0.00000000
      2.78500000	    -31.42151582	      0.75852153	      5.54549564	     -0.42017272	      0.59039565	     -0.90144607	     97.59191820	    -13.90615510	      7.61915863	    110.67178019	      1.93158695	     44.15961701	      0.00000000	      0.00000000	     97.73236736	    -13.96429004	      1.84999124	    109.37637660	      1.90897790	     42.41677832	      0.00000000	      0.00000000	    -25.27785576	     -1.14068499	     -6.16366378	     -9.32974179	    -43.54208286	     50.96739531	     81.89599299	     87.93655537	      0.00000000	      0.00000000	    -24.59393106	    -40.99371135	     35.78668568	     85.00328379	     87.82880686	      0.00000000	      0.00000000
      2.79000000	    -31.29786713	      0.69461359	      5.60048395	     -0.41971470	      0.59080283	     -0.90140198	     97.37111827	    -13.95502740	      7.53718252	    110.64981877	      1.93120365	     44.30624999	      0.00000000	      0.00000000	     97.58213248	    -13.90137380	      1.95252742	    109.36523450	      1.90878343	     42.49500360	      0.00000000	      0.00000000	    -25.40188924	     -1.09334496	     -7.73809508	     -5.98385216	    -43.92842618	     55.06837605	     81.53863366	     87.85343977	      0.00000000	      0.00000000	    -27.24454342	    -39.86794096	     32.46213111	     85.14510389	     87.88349410	      0.00000000	      0.00000000
      2.79500000	    -31.21920409	      0.80685681	      5.83076310	     -0.41929963	      0.59121796	     -0.90193874	     97.27577442	    -14.27115183	      7.63923040	    110.66892760	      1.93153717	     44.39754889	      0.00000000	      0.00000000	     97.38134274	    -13.67271773	      1.72690237	    109.33322848	      1.90822482	     42.47901574	      0.00000000	      0.00000000	    -25.53644928	     -1.08572944	     -7.77314739	     -6.46290777	    -43.89952636	     54.43477222	     81.64050238	     87.82900144	      0.00000000	      0.00000000	    -26.93329678	    -40.04084105	     32.88432503	     85.16867579	     87.85560302	      0.00000000	      0.00000000
      2.80000000	    -31.49557225	      0.78598998	      5.71991333	     -0.41926885	      0.59093073	     -0.90165595	     97.54327629	    -14.11214415	      7.62310792	    110.62682744	      1.93080238	     44.37058844	      0.00000000	      0.00000000	     97.65890625	    -13.78486926	      1.77080603	    109.28970095	      1.90746512	     42.63047331	      0.00000000	      0.00000000	    -25.23393479	     -1.16802928	     -7.50818708	     -6.79638387	    -43.85707861	     54.11252112	     81.67851343	     87.80931611	      0.00000000	      0.00000000	    -26.80159344	    -40.12147660	     33.08447438	     85.21515699	     87.82978984	      0.00000000	      0.00000000
      2.80500000	    -31.69004521	      0.90379953	      5.73908576	     -0.41926537	      0.59076492	     -0.90161657	     97.78197995	    -14.07622660	      7.82953840	    110.64769333	      1.93116656	     44.15187233	      0.00000000	      0.00000000	     97.77784660	    -13.79654396	      1.58841436	    109.26034083	      1.90695269	     42.44849177	      0.00000000	      0.00000000	    -25.04176483	     -1.29979240	     -7.28255809	     -7.42105674	    -43.78534406	     53.42775630	     81.71466892	     87.88145438	      0.00000000	      0.00000000	    -26.37020019	    -40.36347810	     33.71664676	     85.17016040	     87.88845360	      0.00000000	      0.00000000
      2.81000000	    -31.88296589	      1.04365652	      5.73435277	     -0.41931843	      0.59067995	     -0.90158259	     98.01396943	    -14.04984926	      8.00322040	    110.62336566	      1.93074196	     44.02051505	      0.00000000	      0.00000000	     97.88116614	    -13.78854395	      1.42441228	    109.20535628	      1.90599303	     42.44500989	      0.00000000	      0.00000000	    -24.85797800	     -1.47850788	     -7.25826781	     -7.58606658	    -43.75840928	     53.22301845	     81.71515560	     87.88238310	      0.00000000	      0.00000000	    -26.31913819	    -40.47745993	     33.86912582	     85.23863096	     87.86943273	      0.00000000	      0.00000000
      2.81500000	    -32.05738541	      0.95560117	      5.69907187	     -0.41939593	      0.59071367	     -0.90134636	     98.13850545	    -13.94579329	      7.93081474	    110.55586491	      1.92956385	     44.04539127	      0.00000000	      0.00000000	     98.06748308	    -13.84838526	      1.49559919	    109.14566055	      1.90495114	     42.47513613	      0.00000000	      0.00000000	    -24.65203114	     -1.44884677	     -7.17166018	     -7.44986312	    -43.77439844	     53.47521824	     81.66385485	     87.87274503	      0.00000000	      0.00000000	    -26.23343467	    -40.51057949	     34.05476071	     85.19509005	     87.86374096	      0.00000000	      0.00000000
      2.82000000	    -31.92843638	      0.81715774	      5.70595813	     -0.41899234	      0.59127831	     -0.90116016	     97.88672225	    -13.94897412	      7.73187531	    110.50743925	      1.92871866	     44.06756986	      0.00000000	      0.00000000	     97.96562400	    -13.89116420	      1.62179361	    109.14562525	      1.90495052	     42.39560491	      0.00000000	      0.00000000	    -24.80185091	     -1.32476843	     -7.54196282	     -6.50239355	    -43.89351462	     54.62634844	     81.58564593	     87.87397247	      0.00000000	      0.00000000	    -26.95249723	    -40.14439342	     33.07352420	     85.23603495	     87.85841115	      0.00000000	      0.00000000
      2.82500000	    -31.70001920	      0.49679486	      5.74891655	     -0.41840409	      0.59206238	     -0.90095694	     97.43253643	    -13.96737100	      7.32452620	    110.45224908	      1.92775541	     44.12701238	      0.00000000	      0.00000000	     97.79718820	    -13.89068198	      1.96962953	    109.10143263	      1.90417922	     42.43151605	      0.00000000	      0.00000000	    -25.05299352	     -0.98591555	     -7.36883716	     -6.55789615	    -43.89379592	     54.45600633	     81.57874577	     87.87893401	      0.00000000	      0.00000000	    -26.79947304	    -40.16913718	     33.20468508	     85.20099605	     87.87375239	      0.00000000	      0.00000000
